<?xml version="1.0" encoding="UTF-8" standalone="no"?>
<!-- Created with Inkscape (http://www.inkscape.org/) -->

<svg
   xmlns:dc="http://purl.org/dc/elements/1.1/"
   xmlns:cc="http://creativecommons.org/ns#"
   xmlns:rdf="http://www.w3.org/1999/02/22-rdf-syntax-ns#"
   xmlns:svg="http://www.w3.org/2000/svg"
   xmlns="http://www.w3.org/2000/svg"
   xmlns:sodipodi="http://sodipodi.sourceforge.net/DTD/sodipodi-0.dtd"
   xmlns:inkscape="http://www.inkscape.org/namespaces/inkscape"
   width="100"
   height="100"
   id="svg4263"
   version="1.1"
   inkscape:version="0.48.4 r9939"
   sodipodi:docname="sdf_icon_inverted.svg">
  <defs
     id="defs4265" />
  <sodipodi:namedview
     id="base"
     pagecolor="#ffffff"
     bordercolor="#666666"
     borderopacity="1.0"
     inkscape:pageopacity="0.0"
     inkscape:pageshadow="2"
     inkscape:zoom="2.8"
     inkscape:cx="47.175197"
     inkscape:cy="62.743618"
     inkscape:document-units="px"
     inkscape:current-layer="layer1"
     showgrid="false"
     fit-margin-top="0"
     fit-margin-left="0"
     fit-margin-right="0"
     fit-margin-bottom="0"
     inkscape:window-width="536"
     inkscape:window-height="575"
     inkscape:window-x="1574"
     inkscape:window-y="660"
     inkscape:window-maximized="0"
     showguides="true"
     inkscape:guide-bbox="true"
     inkscape:snap-bbox="true" />
  <metadata
     id="metadata4268">
    <rdf:RDF>
      <cc:Work
         rdf:about="">
        <dc:format>image/svg+xml</dc:format>
        <dc:type
           rdf:resource="http://purl.org/dc/dcmitype/StillImage" />
        <dc:title></dc:title>
      </cc:Work>
    </rdf:RDF>
  </metadata>
  <g
     inkscape:label="Layer 1"
     inkscape:groupmode="layer"
     id="layer1"
     transform="translate(-240.04023,-318.89557)">
    <path
       style="color:#000000;fill:#297d0d;fill-opacity:1;stroke:none;stroke-width:1px;marker:none;visibility:visible;display:inline;overflow:visible;enable-background:accumulate"
       d="m 290.04023,318.89557 c -27.61418,0 -50,22.39119 -50,50.01197 0,27.44488 22.10199,49.70532 49.47343,49.98803 0.0282,-2.99127 -2.73355,-17.16035 -2.75251,-25.83193 -0.01,-4.37926 4.2938,-20.11503 1.86692,-27.05292 -23.38638,-13.46997 -14.18196,-24.15492 -30.30158,-28.56116 16.82978,0.23212 15.50922,-3.54115 28.62614,7.46948 4.55933,4.09843 4.33928,9.2997 4.21254,17.88365 -0.11042,7.47939 0.69674,7.79948 0.93346,13.43068 2.12912,-0.92082 7.28788,-2.61118 10.6989,-5.55422 5.19706,-4.48406 14.19003,-12.6681 18.14265,-12.49701 3.77387,0.0507 12.82823,1.08073 18.19052,1.24492 -4.43143,-23.08424 -24.71914,-40.53149 -49.09047,-40.53149 z m 49.28195,41.56094 c -8.06681,3.41912 -8.29868,4.5364 -21.78075,11.18026 -4.83067,1.77316 -22.49535,0.42716 -25.65821,11.63515 -0.52554,2.39975 -1.89372,8.24225 -1.26855,16.44721 0.58348,7.65779 3.16211,17.26672 4.045,18.98491 25.45037,-2.33013 45.38056,-23.73234 45.38056,-49.7965 0,-2.88258 -0.24992,-5.70188 -0.71805,-8.45103 z"
       id="path4464"
       inkscape:connector-curvature="0" />
  </g>
</svg>
